<svg xmlns="http://www.w3.org/2000/svg" xmlns:xlink="http://www.w3.org/1999/xlink" width="24" height="24" viewBox="0 0 24 24">
  <defs>
    <style>
      .cls-1, .cls-4 {
        fill: none;
      }

      .cls-2 {
        clip-path: url(#clip-path);
      }

      .cls-3 {
        fill: #f1f0f2;
        opacity: 0;
      }

      .cls-4 {
        stroke: #757575;
        stroke-linecap: round;
        stroke-linejoin: round;
        stroke-width: 1.5px;
      }
    </style>
    <clipPath id="clip-path">
      <rect class="cls-1" width="24" height="24"/>
    </clipPath>
  </defs>
  <g id="icons_dark_setting" data-name="icons/dark/setting" class="cls-2">
    <rect id="Retângulo_531" data-name="Retângulo 531" class="cls-3" width="24" height="24"/>
    <g id="settings" transform="translate(3 3)">
      <circle id="Elipse_52" data-name="Elipse 52" class="cls-4" cx="3" cy="3" r="3" transform="translate(6 6)"/>
      <path id="Caminho_199" data-name="Caminho 199" class="cls-4" d="M16.055,12.455a1.35,1.35,0,0,0,.27,1.489l.049.049a1.637,1.637,0,1,1-2.315,2.315l-.049-.049a1.361,1.361,0,0,0-2.307.965v.139a1.636,1.636,0,1,1-3.273,0V17.29a1.35,1.35,0,0,0-.884-1.235,1.35,1.35,0,0,0-1.489.27l-.049.049a1.637,1.637,0,1,1-2.315-2.315l.049-.049A1.361,1.361,0,0,0,2.775,11.7H2.636a1.636,1.636,0,1,1,0-3.273H2.71a1.35,1.35,0,0,0,1.235-.884,1.35,1.35,0,0,0-.27-1.489l-.049-.049A1.637,1.637,0,1,1,5.942,3.692l.049.049a1.35,1.35,0,0,0,1.489.27h.065a1.35,1.35,0,0,0,.818-1.235V2.636a1.636,1.636,0,1,1,3.273,0V2.71a1.361,1.361,0,0,0,2.307.965l.049-.049a1.637,1.637,0,1,1,2.315,2.315l-.049.049a1.35,1.35,0,0,0-.27,1.489v.065a1.35,1.35,0,0,0,1.235.818h.139a1.636,1.636,0,1,1,0,3.273H17.29A1.35,1.35,0,0,0,16.055,12.455Z" transform="translate(-1 -1)"/>
    </g>
  </g>
</svg>
