<svg xmlns="http://www.w3.org/2000/svg" xmlns:xlink="http://www.w3.org/1999/xlink" width="117" height="24" viewBox="0 0 117 24"><defs><clipPath id="a"><rect width="117" height="24" fill="none"/></clipPath><clipPath id="b"><rect width="24" height="24" fill="none"/></clipPath></defs><g clip-path="url(#a)"><text transform="translate(22 16)" fill="#bbbccd" font-size="12" font-family="Montserrat-Bold, Montserrat" font-weight="700"><tspan x="-21.864" y="0">256</tspan></text><text transform="translate(89 16)" fill="#bbbccd" font-size="12" font-family="Montserrat-Bold, Montserrat" font-weight="700"><tspan x="-23.244" y="0">428</tspan></text><g transform="translate(26)" clip-path="url(#b)"><rect width="24" height="24" fill="none"/><path d="M19,13.667a1.778,1.778,0,0,1-1.778,1.778H6.556L3,19V4.778A1.778,1.778,0,0,1,4.778,3H17.222A1.778,1.778,0,0,1,19,4.778Z" transform="translate(1.5 1.5)" fill="none" stroke="#998fa2" stroke-linecap="round" stroke-linejoin="round" stroke-width="2"/></g><g transform="translate(93)" clip-path="url(#b)"><rect width="24" height="24" fill="none"/><path d="M18.482,4.413a4.828,4.828,0,0,0-6.829,0l-.93.93-.93-.93a4.829,4.829,0,0,0-6.829,6.829l.93.93L10.723,19l6.829-6.829.93-.93a4.828,4.828,0,0,0,0-6.829Z" transform="translate(1.229 1.616)" fill="none" stroke="#998fa2" stroke-linecap="round" stroke-linejoin="round" stroke-width="2"/></g></g></svg>